<?xml version="1.0" standalone="no"?><!DOCTYPE svg PUBLIC "-//W3C//DTD SVG 1.1//EN" "http://www.w3.org/Graphics/SVG/1.1/DTD/svg11.dtd"><svg height="800" node-id="1" sillyvg="true" template-height="800" template-width="800" version="1.1" viewBox="0 0 800 800" width="800" xmlns="http://www.w3.org/2000/svg" xmlns:xlink="http://www.w3.org/1999/xlink"><defs node-id="222"><linearGradient gradientUnits="userSpaceOnUse" id="SVGID_1_" node-id="21" spreadMethod="pad" x1="401.5984" x2="401.5984" y1="159.8431" y2="715.3348"><stop offset="0.00000009590021" stop-color="#f4f2fb"></stop><stop offset="1" stop-color="#e1eef5"></stop></linearGradient><linearGradient gradientUnits="userSpaceOnUse" id="SVGID_2_" node-id="26" spreadMethod="pad" x1="116.6802" x2="116.6802" y1="540.2294" y2="403.0549"><stop offset="0.2267" stop-color="#b7ace0"></stop><stop offset="0.7893" stop-color="#e8e7fa"></stop></linearGradient><linearGradient gradientUnits="userSpaceOnUse" id="SVGID_3_" node-id="31" spreadMethod="pad" x1="116.6821" x2="116.6821" y1="418.2866" y2="569.4199"><stop offset="0" stop-color="#ecf1fb"></stop><stop offset="0.818" stop-color="#afb0e7"></stop></linearGradient><linearGradient gradientUnits="userSpaceOnUse" id="SVGID_4_" node-id="36" spreadMethod="pad" x1="617.8091" x2="617.8091" y1="448.7075" y2="360.383"><stop offset="0.2267" stop-color="#ccd4f4"></stop><stop offset="0.7893" stop-color="#ecf1fb"></stop></linearGradient><linearGradient gradientUnits="userSpaceOnUse" id="SVGID_5_" node-id="41" spreadMethod="pad" x1="617.8103" x2="617.8103" y1="370.1905" y2="467.5028"><stop offset="0" stop-color="#ecf1fb"></stop><stop offset="1" stop-color="#a6a8e2"></stop></linearGradient><linearGradient gradientUnits="userSpaceOnUse" id="SVGID_6_" node-id="45" spreadMethod="pad" x1="463.7272" x2="428.9729" y1="86.1009" y2="146.297"><stop offset="0" stop-color="#ffdb80"></stop><stop offset="1" stop-color="#ffbb24"></stop></linearGradient><linearGradient gradientUnits="userSpaceOnUse" id="SVGID_7_" node-id="49" spreadMethod="pad" x1="421.39" x2="421.39" y1="116.5671" y2="174.021"><stop offset="0" stop-color="#f9fafe"></stop><stop offset="1" stop-color="#e5edf7"></stop></linearGradient><linearGradient gradientUnits="userSpaceOnUse" id="SVGID_8_" node-id="54" spreadMethod="pad" x1="688.4114" x2="688.4114" y1="537.9476" y2="510.1194"><stop offset="0.2267" stop-color="#afb0e7"></stop><stop offset="1" stop-color="#ecf1fb"></stop></linearGradient><linearGradient gradientUnits="userSpaceOnUse" id="SVGID_9_" node-id="58" spreadMethod="pad" x1="688.4604" x2="688.4604" y1="513.6331" y2="558.429"><stop offset="0.00000009590021" stop-color="#dde1f6"></stop><stop offset="0.818" stop-color="#a6a8e2"></stop></linearGradient><linearGradient gradientUnits="userSpaceOnUse" id="SVGID_10_" node-id="62" spreadMethod="pad" x1="309.3953" x2="309.3953" y1="542.2374" y2="479.797"><stop offset="0" stop-color="#b0b9e1"></stop><stop offset="0.8657" stop-color="#eaf0f8"></stop></linearGradient><linearGradient gradientUnits="userSpaceOnUse" id="SVGID_11_" node-id="66" spreadMethod="pad" x1="330.5511" x2="348.5237" y1="635.7178" y2="533.7903"><stop offset="0" stop-color="#b0b9e1"></stop><stop offset="0.8657" stop-color="#eaf0f8"></stop></linearGradient><linearGradient gradientUnits="userSpaceOnUse" id="SVGID_12_" node-id="70" spreadMethod="pad" x1="643.1407" x2="643.1407" y1="542.1822" y2="479.7418"><stop offset="0" stop-color="#b0b9e1"></stop><stop offset="0.8657" stop-color="#eaf0f8"></stop></linearGradient><linearGradient gradientUnits="userSpaceOnUse" id="SVGID_13_" node-id="74" spreadMethod="pad" x1="473.134" x2="473.134" y1="527.9645" y2="471.9381"><stop offset="0" stop-color="#b0b9e1"></stop><stop offset="0.8657" stop-color="#eaf0f8"></stop></linearGradient><linearGradient gradientUnits="userSpaceOnUse" id="SVGID_14_" node-id="78" spreadMethod="pad" x1="200.8579" x2="314.802" y1="322.4171" y2="519.7741"><stop offset="0" stop-color="#c8cbf2"></stop><stop offset="1" stop-color="#a1a3db"></stop></linearGradient><linearGradient gradientUnits="userSpaceOnUse" id="SVGID_15_" node-id="82" spreadMethod="pad" x1="173.4533" x2="287.3974" y1="338.2392" y2="535.5962"><stop offset="0.1157" stop-color="#dee4ff"></stop><stop offset="0.8472" stop-color="#bacbee"></stop></linearGradient><linearGradient gradientUnits="userSpaceOnUse" id="SVGID_16_" node-id="86" spreadMethod="pad" x1="534.619" x2="648.563" y1="322.4171" y2="519.7741"><stop offset="0" stop-color="#c8cbf2"></stop><stop offset="1" stop-color="#afb0e7"></stop></linearGradient><linearGradient gradientUnits="userSpaceOnUse" id="SVGID_17_" node-id="90" spreadMethod="pad" x1="507.2143" x2="621.1584" y1="338.2392" y2="535.5962"><stop offset="0.1157" stop-color="#dee4ff"></stop><stop offset="0.8472" stop-color="#bacbee"></stop></linearGradient><linearGradient gradientUnits="userSpaceOnUse" id="SVGID_18_" node-id="95" spreadMethod="pad" x1="342.1094" x2="430.0646" y1="296.5737" y2="448.9165"><stop offset="0" stop-color="#c8cbf2"></stop><stop offset="1" stop-color="#afb0e7"></stop></linearGradient><linearGradient gradientUnits="userSpaceOnUse" id="SVGID_19_" node-id="99" spreadMethod="pad" x1="388.8397" x2="398.7824" y1="418.0721" y2="435.2933"><stop offset="0" stop-color="#c8cbf2"></stop><stop offset="1" stop-color="#a1a3db"></stop></linearGradient><linearGradient gradientUnits="userSpaceOnUse" id="SVGID_20_" node-id="103" spreadMethod="pad" x1="405.6055" x2="415.5967" y1="413.1975" y2="430.5028"><stop offset="0" stop-color="#c8cbf2"></stop><stop offset="1" stop-color="#a1a3db"></stop></linearGradient><linearGradient gradientUnits="userSpaceOnUse" id="SVGID_21_" node-id="107" spreadMethod="pad" x1="423.1981" x2="431.2108" y1="416.3271" y2="430.2055"><stop offset="0" stop-color="#c8cbf2"></stop><stop offset="1" stop-color="#a1a3db"></stop></linearGradient><linearGradient gradientUnits="userSpaceOnUse" id="SVGID_22_" node-id="111" spreadMethod="pad" x1="415.0141" x2="456.8345" y1="446.155" y2="518.59"><stop offset="0" stop-color="#c8cbf2"></stop><stop offset="1" stop-color="#afb0e7"></stop></linearGradient><linearGradient gradientUnits="userSpaceOnUse" id="SVGID_23_" node-id="116" spreadMethod="pad" x1="332.1094" x2="420.0646" y1="296.5737" y2="448.9165"><stop offset="0.1157" stop-color="#dee4ff"></stop><stop offset="0.8472" stop-color="#bacbee"></stop></linearGradient><linearGradient gradientUnits="userSpaceOnUse" id="SVGID_24_" node-id="120" spreadMethod="pad" x1="378.8397" x2="388.7824" y1="418.0721" y2="435.2933"><stop offset="0.1157" stop-color="#dee4ff"></stop><stop offset="0.8472" stop-color="#bacbee"></stop></linearGradient><linearGradient gradientUnits="userSpaceOnUse" id="SVGID_25_" node-id="124" spreadMethod="pad" x1="395.6055" x2="405.5967" y1="413.1975" y2="430.5028"><stop offset="0.1157" stop-color="#dee4ff"></stop><stop offset="0.8472" stop-color="#bacbee"></stop></linearGradient><linearGradient gradientUnits="userSpaceOnUse" id="SVGID_26_" node-id="128" spreadMethod="pad" x1="413.1981" x2="421.2108" y1="416.3271" y2="430.2055"><stop offset="0.1157" stop-color="#dee4ff"></stop><stop offset="0.8472" stop-color="#bacbee"></stop></linearGradient><linearGradient gradientUnits="userSpaceOnUse" id="SVGID_27_" node-id="132" spreadMethod="pad" x1="405.0141" x2="446.8345" y1="446.155" y2="518.59"><stop offset="0.1157" stop-color="#dee4ff"></stop><stop offset="0.8472" stop-color="#bacbee"></stop></linearGradient><linearGradient gradientUnits="userSpaceOnUse" id="SVGID_28_" node-id="137" spreadMethod="pad" x1="203.6882" x2="203.6882" y1="523.2604" y2="469.8896"><stop offset="0" stop-color="#4f5c7c"></stop><stop offset="1" stop-color="#274168"></stop></linearGradient><linearGradient gradientUnits="userSpaceOnUse" id="SVGID_29_" node-id="141" spreadMethod="pad" x1="227.1992" x2="227.1992" y1="575.9602" y2="496.7914"><stop offset="0" stop-color="#c3d5fd"></stop><stop offset="1" stop-color="#1a90fc"></stop></linearGradient><linearGradient gradientUnits="userSpaceOnUse" id="SVGID_30_" node-id="145" spreadMethod="pad" x1="228.297" x2="228.297" y1="483.2891" y2="508.3692"><stop offset="0" stop-color="#f4ae98"></stop><stop offset="1" stop-color="#fad1bb"></stop></linearGradient><linearGradient gradientTransform="matrix(0.9901 -0.1406 0.1406 0.9901 1633.4722 -264.9097)" gradientUnits="userSpaceOnUse" id="SVGID_31_" node-id="149" spreadMethod="pad" x1="-1537.4093" x2="-1525.1509" y1="641.8447" y2="555.5321"><stop offset="0" stop-color="#c3d5fd"></stop><stop offset="1" stop-color="#1a90fc"></stop></linearGradient><linearGradient gradientTransform="matrix(-0.9901 -0.1406 -0.1406 0.9901 -3513.8069 -264.9097)" gradientUnits="userSpaceOnUse" id="SVGID_32_" node-id="153" spreadMethod="pad" x1="-3847.3564" x2="-3835.0981" y1="313.7779" y2="227.4652"><stop offset="0" stop-color="#c3d5fd"></stop><stop offset="1" stop-color="#1a90fc"></stop></linearGradient><linearGradient gradientUnits="userSpaceOnUse" id="SVGID_33_" node-id="157" spreadMethod="pad" x1="247.7188" x2="247.7188" y1="522.8882" y2="472.6996"><stop offset="0" stop-color="#4f5c7c"></stop><stop offset="1" stop-color="#274168"></stop></linearGradient><linearGradient gradientTransform="matrix(0.9995 0.0319 -0.0319 0.9995 -364.9868 54.7374)" gradientUnits="userSpaceOnUse" id="SVGID_34_" node-id="161" spreadMethod="pad" x1="604.6652" x2="604.6652" y1="387.6868" y2="420.3757"><stop offset="0" stop-color="#f4b9a4"></stop><stop offset="0.652" stop-color="#fad1bb"></stop></linearGradient><linearGradient gradientUnits="userSpaceOnUse" id="SVGID_35_" node-id="165" spreadMethod="pad" x1="225.1852" x2="225.1852" y1="483.0917" y2="452.882"><stop offset="0" stop-color="#4f5c7c"></stop><stop offset="1" stop-color="#274168"></stop></linearGradient><linearGradient gradientUnits="userSpaceOnUse" id="SVGID_36_" node-id="169" spreadMethod="pad" x1="227.1992" x2="227.1992" y1="547.3691" y2="597.6797"><stop offset="0" stop-color="#275c89"></stop><stop offset="1" stop-color="#013f7c"></stop></linearGradient><linearGradient gradientUnits="userSpaceOnUse" id="SVGID_37_" node-id="175" spreadMethod="pad" x1="2241.7214" x2="2223.911" y1="619.3924" y2="619.3924"><stop offset="0" stop-color="#f4b9a4"></stop><stop offset="0.652" stop-color="#fad1bb"></stop></linearGradient><linearGradient gradientUnits="userSpaceOnUse" id="SVGID_38_" node-id="179" spreadMethod="pad" x1="203.0502" x2="294.9316" y1="599.7622" y2="599.7622"><stop offset="0" stop-color="#18264b"></stop><stop offset="0.652" stop-color="#2d3c65"></stop></linearGradient><linearGradient gradientUnits="userSpaceOnUse" id="SVGID_39_" node-id="183" spreadMethod="pad" x1="182.3333" x2="182.3333" y1="610.7398" y2="629.6459"><stop offset="0" stop-color="#ffdb80"></stop><stop offset="1" stop-color="#ffbb24"></stop></linearGradient><linearGradient gradientUnits="userSpaceOnUse" id="SVGID_40_" node-id="189" spreadMethod="pad" x1="247.4424" x2="265.253" y1="619.3924" y2="619.3924"><stop offset="0" stop-color="#f4b9a4"></stop><stop offset="0.652" stop-color="#fad1bb"></stop></linearGradient><linearGradient gradientUnits="userSpaceOnUse" id="SVGID_41_" node-id="193" spreadMethod="pad" x1="162.8425" x2="254.724" y1="599.7622" y2="599.7622"><stop offset="0" stop-color="#445677"></stop><stop offset="1" stop-color="#293861"></stop></linearGradient><linearGradient gradientUnits="userSpaceOnUse" id="SVGID_42_" node-id="197" spreadMethod="pad" x1="275.4409" x2="275.4409" y1="610.7398" y2="629.6459"><stop offset="0" stop-color="#ffdb80"></stop><stop offset="1" stop-color="#ffbb24"></stop></linearGradient><linearGradient gradientUnits="userSpaceOnUse" id="SVGID_43_" node-id="201" spreadMethod="pad" x1="582.8162" x2="582.8162" y1="621.7823" y2="557.2915"><stop offset="0" stop-color="#b0b9e1"></stop><stop offset="1" stop-color="#e7eff7"></stop></linearGradient><linearGradient gradientUnits="userSpaceOnUse" id="SVGID_44_" node-id="205" spreadMethod="pad" x1="525.6082" x2="559.4053" y1="573.4457" y2="631.9839"><stop offset="0" stop-color="#c8cbf2"></stop><stop offset="1" stop-color="#afb0e7"></stop></linearGradient><linearGradient gradientUnits="userSpaceOnUse" id="SVGID_45_" node-id="209" spreadMethod="pad" x1="519.5714" x2="553.3685" y1="574.0347" y2="632.5729"><stop offset="0.1157" stop-color="#dee4ff"></stop><stop offset="0.8472" stop-color="#bacbee"></stop></linearGradient><linearGradient gradientUnits="userSpaceOnUse" id="SVGID_46_" node-id="213" spreadMethod="pad" x1="489.4733" x2="513.7396" y1="261.39" y2="303.4205"><stop offset="0" stop-color="#c8cbf2"></stop><stop offset="1" stop-color="#afb0e7"></stop></linearGradient><linearGradient gradientUnits="userSpaceOnUse" id="SVGID_47_" node-id="217" spreadMethod="pad" x1="485.1389" x2="509.4052" y1="261.8129" y2="303.8433"><stop offset="0.1157" stop-color="#dee4ff"></stop><stop offset="0.8472" stop-color="#bacbee"></stop></linearGradient></defs><g node-id="641"><g node-id="642"><path d="M 484.86 201.20 C 446.49 231.49 364.12 235.01 303.69 198.98 C 243.26 162.95 131.69 167.60 101.47 233.85 C 71.25 300.10 138.66 365.18 114.25 412.83 C 89.84 460.48 8.49 527.87 64.27 609.23 C 120.05 690.59 190.87 669.85 233.49 661.68 C 317.66 645.55 423.28 777.35 542.11 677.81 C 610.58 620.46 712.55 719.90 752.28 596.45 C 785.06 494.59 666.61 456.95 702.31 388.42 C 740.27 315.54 732.98 229.18 691.85 187.36 C 653.54 148.40 551.10 148.90 484.86 201.20 Z" fill="url(#SVGID_1_)" fill-rule="nonzero" group-id="1,2" node-id="512" stroke="none" target-height="628.94995" target-width="776.57" target-x="8.49" target-y="148.4"></path><g node-id="646"><path d="M 117.46 403.30 C 117.46 403.30 117.24 402.73 116.94 403.34 C 114.24 408.83 89.79 468.30 87.85 514.20 C 87.85 514.20 83.77 540.57 117.96 540.22 C 146.50 539.93 145.74 515.62 145.64 507.43 C 145.26 474.21 117.46 403.30 117.46 403.30 Z" fill="url(#SVGID_2_)" fill-rule="nonzero" group-id="1,2,6" node-id="516" stroke="none" target-height="137.84" target-width="62.730003" target-x="83.77" target-y="402.73"></path><g node-id="651"><path d="M 116.68 569.42 C 116.13 569.42 115.68 568.97 115.68 568.42 L 115.68 419.29 C 115.68 418.74 116.13 418.29 116.68 418.29 C 117.23 418.29 117.68 418.74 117.68 419.29 L 117.68 568.42 C 117.68 568.97 117.23 569.42 116.68 569.42 Z" fill="url(#SVGID_3_)" fill-rule="nonzero" group-id="1,2,6,11" node-id="520" stroke="none" target-height="151.12997" target-width="2" target-x="115.68" target-y="418.29"></path></g></g><g node-id="647"><path d="M 618.31 360.54 C 618.31 360.54 618.17 360.17 617.98 360.57 C 616.24 364.10 600.50 402.40 599.25 431.95 C 599.25 431.95 596.62 448.93 618.64 448.71 C 637.02 448.53 636.53 432.87 636.46 427.60 C 636.21 406.20 618.31 360.54 618.31 360.54 Z" fill="url(#SVGID_4_)" fill-rule="nonzero" group-id="1,2,7" node-id="526" stroke="none" target-height="88.75998" target-width="40.400024" target-x="596.62" target-y="360.17"></path><g node-id="652"><path d="M 617.81 467.50 C 617.45 467.50 617.17 467.21 617.17 466.86 L 617.17 370.84 C 617.17 370.48 617.46 370.20 617.81 370.20 C 618.17 370.20 618.45 370.49 618.45 370.84 L 618.45 466.86 C 618.45 467.21 618.17 467.50 617.81 467.50 Z" fill="url(#SVGID_5_)" fill-rule="nonzero" group-id="1,2,7,12" node-id="530" stroke="none" target-height="97.29999" target-width="1.2800293" target-x="617.17" target-y="370.2"></path></g></g><path d="M 481.10 116.20 C 481.10 135.39 465.54 150.95 446.35 150.95 C 427.16 150.95 411.60 135.39 411.60 116.20 C 411.60 97.01 427.16 81.45 446.35 81.45 C 465.54 81.45 481.10 97.01 481.10 116.20 Z" fill="url(#SVGID_6_)" fill-rule="nonzero" group-id="1,2" node-id="534" stroke="none" target-height="69.5" target-width="69.5" target-x="411.6" target-y="81.45"></path><path d="M 466.13 135.15 L 431.56 135.15 C 429.33 124.54 419.91 116.57 408.63 116.57 C 397.35 116.57 387.94 124.54 385.70 135.15 L 376.65 135.15 C 365.92 135.15 357.21 143.85 357.21 154.59 L 357.21 154.59 C 357.21 165.32 365.91 174.03 376.65 174.03 L 466.12 174.03 C 476.85 174.03 485.56 165.33 485.56 154.59 L 485.56 154.59 C 485.56 143.85 476.86 135.15 466.13 135.15 Z" fill="url(#SVGID_7_)" fill-rule="nonzero" group-id="1,2" node-id="536" stroke="none" target-height="57.46" target-width="128.35" target-x="357.21" target-y="116.57"></path><path d="M 702.32 524.03 C 702.32 531.71 696.09 537.94 688.41 537.94 C 680.73 537.94 674.50 531.71 674.50 524.03 C 674.50 516.35 680.73 510.12 688.41 510.12 C 696.09 510.12 702.32 516.35 702.32 524.03 Z" fill="url(#SVGID_8_)" fill-rule="nonzero" group-id="1,2,8" node-id="540" stroke="none" target-height="27.820007" target-width="27.820007" target-x="674.5" target-y="510.12"></path><path d="M 688.46 558.43 C 688.22 558.43 688.03 558.24 688.03 558.00 L 688.03 514.06 C 688.03 513.82 688.22 513.63 688.46 513.63 C 688.70 513.63 688.89 513.82 688.89 514.06 L 688.89 558.00 C 688.89 558.24 688.70 558.43 688.46 558.43 Z" fill="url(#SVGID_9_)" fill-rule="nonzero" group-id="1,2,8" node-id="542" stroke="none" target-height="44.799988" target-width="0.85998535" target-x="688.03" target-y="513.63"></path></g><path d="M 234.79 542.24 L 313.92 479.80 L 384.00 479.80 L 284.30 535.82 Z" fill="url(#SVGID_10_)" fill-rule="nonzero" group-id="1" node-id="546" stroke="none" target-height="62.440002" target-width="149.21" target-x="234.79" target-y="479.8"></path><path d="M 226.90 617.44 L 330.41 536.31 L 452.18 552.07 L 293.13 625.93 Z" fill="url(#SVGID_11_)" fill-rule="nonzero" group-id="1" node-id="548" stroke="none" target-height="89.619995" target-width="225.28" target-x="226.9" target-y="536.31"></path><path d="M 568.53 542.18 L 647.66 479.74 L 717.75 479.74 L 618.05 535.77 Z" fill="url(#SVGID_12_)" fill-rule="nonzero" group-id="1" node-id="550" stroke="none" target-height="62.440002" target-width="149.21997" target-x="568.53" target-y="479.74"></path><path d="M 406.38 524.26 L 469.80 471.94 L 539.88 471.94 L 440.18 527.96 Z" fill="url(#SVGID_13_)" fill-rule="nonzero" group-id="1" node-id="552" stroke="none" target-height="56.02002" target-width="133.5" target-x="406.38" target-y="471.94"></path><path d="M 236.52 301.83 L 247.20 296.63 L 283.86 296.63 L 283.78 437.29 L 310.78 437.02 L 310.78 489.68 L 302.83 494.49 L 284.30 494.49 L 284.30 535.82 L 275.89 542.24 L 262.72 531.37 L 241.02 382.78 L 204.51 437.30 L 239.68 437.30 L 239.68 451.37 L 177.42 451.37 Z" fill="url(#SVGID_14_)" fill-rule="nonzero" group-id="1" node-id="554" stroke="none" target-height="245.60999" target-width="133.36" target-x="177.42" target-y="296.63"></path><path d="M 275.89 444.36 L 275.89 301.83 L 236.52 301.83 L 140.20 442.49 L 140.20 494.49 L 234.79 494.49 L 234.79 542.24 L 275.90 542.24 L 275.90 494.49 L 302.84 494.49 L 302.84 444.37 L 275.89 444.37 Z M 234.79 444.36 L 189.41 444.36 L 234.79 377.41 L 234.79 444.36 Z" fill="url(#SVGID_15_)" fill-rule="nonzero" group-id="1" node-id="556" stroke="none" target-height="240.41" target-width="162.64" target-x="140.2" target-y="301.83"></path><path d="M 570.28 301.83 L 580.96 296.63 L 617.63 296.63 L 617.54 437.29 L 644.54 437.02 L 644.54 489.68 L 636.59 494.49 L 618.06 494.49 L 618.06 535.82 L 609.66 542.24 L 596.49 531.37 L 574.78 382.78 L 538.27 437.30 L 573.44 437.30 L 573.44 451.37 L 511.18 451.37 Z" fill="url(#SVGID_16_)" fill-rule="nonzero" group-id="1" node-id="558" stroke="none" target-height="245.60999" target-width="133.35999" target-x="511.18" target-y="296.63"></path><path d="M 609.66 444.36 L 609.66 301.83 L 570.29 301.83 L 473.97 442.49 L 473.97 494.49 L 568.56 494.49 L 568.56 542.24 L 609.67 542.24 L 609.67 494.49 L 636.61 494.49 L 636.61 444.37 L 609.66 444.37 Z M 568.55 444.36 L 523.17 444.36 L 568.55 377.41 L 568.55 444.36 Z" fill="url(#SVGID_17_)" fill-rule="nonzero" group-id="1" node-id="560" stroke="none" target-height="240.41" target-width="162.63998" target-x="473.97" target-y="301.83"></path><path d="M 398.23 447.16 C 398.17 447.17 392.21 448.17 380.57 449.77 C 377.92 450.13 375.65 450.45 373.64 450.74 C 366.56 451.75 363.00 452.25 357.23 452.45 C 357.19 452.45 357.15 452.45 357.12 452.45 C 352.12 452.66 348.90 448.85 347.05 445.60 C 343.30 438.99 343.25 430.82 345.55 427.35 C 350.44 419.98 351.60 419.92 365.85 419.22 C 367.66 419.13 369.60 419.04 371.72 418.91 C 387.57 417.99 395.77 407.59 399.36 398.30 C 427.69 394.41 449.63 369.44 449.63 339.28 L 449.63 310.56 C 449.63 301.90 442.65 294.85 434.07 294.85 L 416.94 294.85 C 410.86 294.85 405.94 299.77 405.94 305.85 C 405.94 311.93 410.86 316.85 416.94 316.85 L 427.63 316.85 L 427.63 339.28 C 427.63 359.99 411.49 376.84 391.65 376.84 C 371.81 376.84 355.67 359.99 355.67 339.28 L 355.67 316.85 L 365.81 316.85 C 371.89 316.85 376.81 311.93 376.81 305.85 C 376.81 299.77 371.89 294.85 365.81 294.85 L 349.23 294.85 C 340.65 294.85 333.67 301.90 333.67 310.56 L 333.67 339.28 C 333.67 367.70 353.14 391.51 379.10 397.42 C 377.19 399.29 374.49 400.72 370.68 400.94 C 368.63 401.06 366.73 401.15 364.97 401.24 C 349.69 401.99 340.47 402.45 330.55 417.40 C 324.14 427.07 324.49 442.32 331.39 454.49 C 337.19 464.71 346.34 470.47 356.65 470.47 C 357.07 470.47 357.49 470.46 357.91 470.44 C 364.60 470.21 368.72 469.62 376.17 468.56 C 378.15 468.28 380.39 467.96 383.00 467.60 C 394.97 465.96 400.98 464.95 401.23 464.91 C 406.13 464.08 409.43 459.43 408.60 454.53 C 407.77 449.63 403.13 446.33 398.23 447.16 Z" fill="url(#SVGID_18_)" fill-rule="nonzero" group-id="1,3" node-id="564" stroke="none" target-height="175.62" target-width="125.48999" target-x="324.14" target-y="294.85"></path><path d="M 386.36 419.82 C 384.11 422.26 384.27 426.05 386.71 428.30 L 392.78 433.90 C 393.93 434.96 395.39 435.49 396.84 435.49 C 398.46 435.49 400.07 434.84 401.25 433.56 C 403.50 431.12 403.34 427.33 400.90 425.08 L 394.83 419.48 C 392.40 417.23 388.61 417.38 386.36 419.82 Z" fill="url(#SVGID_19_)" fill-rule="nonzero" group-id="1,3" node-id="566" stroke="none" target-height="18.25998" target-width="19.390015" target-x="384.11" target-y="417.23"></path><path d="M 409.46 411.56 C 406.17 411.93 403.79 414.89 404.16 418.18 L 405.12 426.84 C 405.46 429.91 408.06 432.18 411.08 432.18 C 411.30 432.18 411.52 432.17 411.75 432.14 C 415.04 431.77 417.42 428.81 417.05 425.52 L 416.09 416.86 C 415.72 413.57 412.75 411.21 409.46 411.56 Z" fill="url(#SVGID_20_)" fill-rule="nonzero" group-id="1,3" node-id="568" stroke="none" target-height="20.970001" target-width="13.630005" target-x="403.79" target-y="411.21"></path><path d="M 424.51 416.35 L 419.79 423.72 C 418.00 426.51 418.82 430.22 421.61 432.01 C 422.61 432.65 423.73 432.96 424.84 432.96 C 426.82 432.96 428.75 431.98 429.90 430.19 L 434.62 422.82 C 436.41 420.03 435.59 416.32 432.80 414.53 C 430.01 412.74 426.30 413.55 424.51 416.35 Z" fill="url(#SVGID_21_)" fill-rule="nonzero" group-id="1,3" node-id="570" stroke="none" target-height="20.220001" target-width="18.410004" target-x="418" target-y="412.74"></path><path d="M 471.00 463.00 C 462.78 437.91 437.80 437.20 425.74 440.34 C 420.93 441.59 418.04 446.50 419.29 451.31 C 420.54 456.12 425.45 459.01 430.26 457.76 C 430.31 457.75 435.35 456.54 440.88 457.43 C 447.61 458.51 451.74 462.06 453.88 468.60 C 456.00 475.08 455.54 481.32 452.49 487.13 C 449.75 492.37 445.71 495.95 442.84 497.86 C 439.25 493.87 434.14 491.36 428.46 491.36 C 417.60 491.36 408.80 500.46 408.80 511.68 C 408.80 522.90 417.60 532.00 428.46 532.00 C 438.00 532.00 445.94 524.98 447.73 515.66 C 454.68 512.57 463.34 505.22 468.44 495.47 C 473.76 485.34 474.64 474.11 471.00 463.00 Z" fill="url(#SVGID_22_)" fill-rule="nonzero" group-id="1,3" node-id="572" stroke="none" target-height="94.79999" target-width="65.84003" target-x="408.8" target-y="437.2"></path><path d="M 388.23 447.16 C 388.17 447.17 382.21 448.17 370.57 449.77 C 367.92 450.13 365.65 450.45 363.64 450.74 C 356.56 451.75 353.00 452.25 347.23 452.45 C 347.19 452.45 347.15 452.45 347.12 452.45 C 342.12 452.66 338.90 448.85 337.05 445.60 C 333.30 438.99 333.25 430.82 335.55 427.35 C 340.44 419.98 341.60 419.92 355.85 419.22 C 357.66 419.13 359.60 419.04 361.72 418.91 C 377.57 417.99 385.77 407.59 389.36 398.30 C 417.69 394.41 439.63 369.44 439.63 339.28 L 439.63 310.56 C 439.63 301.90 432.65 294.85 424.07 294.85 L 406.94 294.85 C 400.86 294.85 395.94 299.77 395.94 305.85 C 395.94 311.93 400.86 316.85 406.94 316.85 L 417.63 316.85 L 417.63 339.28 C 417.63 359.99 401.49 376.84 381.65 376.84 C 361.81 376.84 345.67 359.99 345.67 339.28 L 345.67 316.85 L 355.81 316.85 C 361.89 316.85 366.81 311.93 366.81 305.85 C 366.81 299.77 361.89 294.85 355.81 294.85 L 339.23 294.85 C 330.65 294.85 323.67 301.90 323.67 310.56 L 323.67 339.28 C 323.67 367.70 343.14 391.51 369.10 397.42 C 367.19 399.29 364.49 400.72 360.68 400.94 C 358.63 401.06 356.73 401.15 354.97 401.24 C 339.69 401.99 330.47 402.45 320.55 417.40 C 314.14 427.07 314.49 442.32 321.39 454.49 C 327.19 464.71 336.34 470.47 346.65 470.47 C 347.07 470.47 347.49 470.46 347.91 470.44 C 354.60 470.21 358.72 469.62 366.17 468.56 C 368.15 468.28 370.39 467.96 373.00 467.60 C 384.97 465.96 390.98 464.95 391.23 464.91 C 396.13 464.08 399.43 459.43 398.60 454.53 C 397.77 449.63 393.13 446.33 388.23 447.16 Z" fill="url(#SVGID_23_)" fill-rule="nonzero" group-id="1,4" node-id="577" stroke="none" target-height="175.62" target-width="125.48999" target-x="314.14" target-y="294.85"></path><path d="M 376.36 419.82 C 374.11 422.26 374.27 426.05 376.71 428.30 L 382.78 433.90 C 383.93 434.96 385.39 435.49 386.84 435.49 C 388.46 435.49 390.07 434.84 391.25 433.56 C 393.50 431.12 393.34 427.33 390.90 425.08 L 384.83 419.48 C 382.40 417.23 378.61 417.38 376.36 419.82 Z" fill="url(#SVGID_24_)" fill-rule="nonzero" group-id="1,4" node-id="579" stroke="none" target-height="18.25998" target-width="19.390015" target-x="374.11" target-y="417.23"></path><path d="M 399.46 411.56 C 396.17 411.93 393.79 414.89 394.16 418.18 L 395.12 426.84 C 395.46 429.91 398.06 432.18 401.08 432.18 C 401.30 432.18 401.52 432.17 401.75 432.14 C 405.04 431.77 407.42 428.81 407.05 425.52 L 406.09 416.86 C 405.72 413.57 402.75 411.21 399.46 411.56 Z" fill="url(#SVGID_25_)" fill-rule="nonzero" group-id="1,4" node-id="581" stroke="none" target-height="20.970001" target-width="13.630005" target-x="393.79" target-y="411.21"></path><path d="M 414.51 416.35 L 409.79 423.72 C 408.00 426.51 408.82 430.22 411.61 432.01 C 412.61 432.65 413.73 432.96 414.84 432.96 C 416.82 432.96 418.75 431.98 419.90 430.19 L 424.62 422.82 C 426.41 420.03 425.59 416.32 422.80 414.53 C 420.01 412.74 416.30 413.55 414.51 416.35 Z" fill="url(#SVGID_26_)" fill-rule="nonzero" group-id="1,4" node-id="583" stroke="none" target-height="20.220001" target-width="18.410004" target-x="408" target-y="412.74"></path><path d="M 461.00 463.00 C 452.78 437.91 427.80 437.20 415.74 440.34 C 410.93 441.59 408.04 446.50 409.29 451.31 C 410.54 456.12 415.45 459.01 420.26 457.76 C 420.31 457.75 425.35 456.54 430.88 457.43 C 437.61 458.51 441.74 462.06 443.88 468.60 C 446.00 475.08 445.54 481.32 442.49 487.13 C 439.75 492.37 435.71 495.95 432.84 497.86 C 429.25 493.87 424.14 491.36 418.46 491.36 C 407.60 491.36 398.80 500.46 398.80 511.68 C 398.80 522.90 407.60 532.00 418.46 532.00 C 428.00 532.00 435.94 524.98 437.73 515.66 C 444.68 512.57 453.34 505.22 458.44 495.47 C 463.76 485.34 464.64 474.11 461.00 463.00 Z" fill="url(#SVGID_27_)" fill-rule="nonzero" group-id="1,4" node-id="585" stroke="none" target-height="94.79999" target-width="65.84003" target-x="398.8" target-y="437.2"></path><path d="M 207.58 473.61 C 207.58 473.61 196.01 476.40 193.78 486.41 C 189.11 487.55 173.39 496.01 185.26 514.70 C 191.25 522.03 192.16 523.27 192.16 523.27 L 226.45 513.15 L 226.45 469.90 L 207.58 473.61 Z" fill="url(#SVGID_28_)" fill-rule="nonzero" group-id="1,5" node-id="590" stroke="none" target-height="53.370026" target-width="53.059998" target-x="173.39" target-y="469.9"></path><path d="M 219.03 497.17 C 219.03 497.17 199.82 494.51 193.58 503.34 C 187.34 512.17 185.06 534.76 185.06 534.76 L 199.52 534.00 L 198.30 560.32 L 224.98 575.96 L 262.98 555.52 L 257.20 531.67 L 269.34 528.50 C 269.34 528.50 265.72 493.89 248.83 499.00 C 240.16 499.93 237.42 499.77 237.42 499.77 C 237.42 499.77 235.14 507.05 227.30 506.43 C 219.46 505.81 219.03 497.17 219.03 497.17 Z" fill="url(#SVGID_29_)" fill-rule="nonzero" group-id="1,5" node-id="592" stroke="none" target-height="82.07001" target-width="84.28" target-x="185.06" target-y="493.89"></path><path d="M 220.95 486.29 L 216.96 504.09 C 216.77 504.93 217.21 505.78 218.00 506.10 C 220.06 506.94 224.19 508.37 228.44 508.37 C 232.84 508.37 237.00 505.96 238.91 504.67 C 239.57 504.23 239.84 503.40 239.59 502.65 L 233.49 484.49 C 233.21 483.66 232.37 483.17 231.51 483.32 L 222.36 484.94 C 221.66 485.06 221.10 485.59 220.95 486.29 Z" fill="url(#SVGID_30_)" fill-rule="nonzero" group-id="1,5" node-id="594" stroke="none" target-height="25.199982" target-width="23.069992" target-x="216.77" target-y="483.17"></path><path d="M 197.10 500.25 C 202.69 498.39 210.27 499.64 210.58 512.18 C 210.89 524.72 198.60 544.71 203.00 551.66 C 207.46 558.71 217.00 568.71 223.06 574.41 C 221.65 581.11 217.84 586.74 217.84 586.74 C 217.84 586.74 195.48 576.42 185.74 566.09 C 176.00 555.76 180.92 532.06 185.43 515.20 C 188.83 502.49 197.10 500.25 197.10 500.25 Z" fill="url(#SVGID_31_)" fill-rule="nonzero" group-id="1,5" node-id="596" stroke="none" target-height="88.349976" target-width="47.059998" target-x="176" target-y="498.39"></path><path d="M 255.69 500.25 C 250.10 498.39 242.52 499.64 242.21 512.18 C 241.90 524.72 254.19 544.71 249.79 551.66 C 245.33 558.71 235.79 568.71 229.73 574.41 C 231.14 581.11 234.95 586.74 234.95 586.74 C 234.95 586.74 257.31 576.42 267.05 566.09 C 276.79 555.76 271.87 532.06 267.36 515.20 C 263.96 502.49 255.69 500.25 255.69 500.25 Z" fill="url(#SVGID_32_)" fill-rule="nonzero" group-id="1,5" node-id="598" stroke="none" target-height="88.349976" target-width="47.060013" target-x="229.73" target-y="498.39"></path><path d="M 231.22 483.31 C 231.22 483.31 235.28 495.59 234.26 502.41 C 233.25 509.22 234.67 519.03 243.29 522.02 C 251.91 525.01 260.13 519.96 263.07 511.39 C 266.01 502.82 263.17 496.63 255.97 491.05 C 257.19 485.79 251.26 476.23 240.71 472.82 C 230.37 471.38 231.22 483.31 231.22 483.31 Z" fill="url(#SVGID_33_)" fill-rule="nonzero" group-id="1,5" node-id="600" stroke="none" target-height="53.630005" target-width="35.640015" target-x="230.37" target-y="471.38"></path><path d="M 215.60 467.51 C 215.60 467.51 209.01 472.16 209.15 478.75 C 209.29 485.34 214.58 484.11 214.58 484.11 C 214.58 484.11 216.18 493.87 226.58 494.21 C 236.98 494.55 238.45 484.14 238.45 484.14 C 238.45 484.14 243.67 484.80 243.79 478.80 C 243.91 472.80 239.35 464.75 234.82 462.46 C 230.28 460.16 219.14 462.93 215.60 467.51 Z" fill="url(#SVGID_34_)" fill-rule="nonzero" group-id="1,5" node-id="602" stroke="none" target-height="34.389984" target-width="34.90001" target-x="209.01" target-y="460.16"></path><path d="M 222.30 465.45 C 222.30 465.45 220.22 471.44 214.99 472.47 C 209.76 473.50 209.30 476.17 209.30 478.67 C 209.30 480.51 209.92 482.26 210.36 483.10 C 207.54 481.55 203.69 477.85 206.14 467.65 C 208.51 457.80 215.80 453.01 225.62 453.16 C 233.84 450.99 246.01 462.00 244.95 476.32 C 243.20 474.00 241.58 473.46 240.36 473.04 C 239.14 472.62 236.61 470.10 236.30 467.57 C 234.17 468.03 226.71 469.06 222.30 465.45 Z" fill="url(#SVGID_35_)" fill-rule="nonzero" group-id="1,5" node-id="604" stroke="none" target-height="32.110016" target-width="42.319992" target-x="203.69" target-y="450.99"></path><path d="M 199.81 597.68 L 254.10 597.68 C 256.56 597.68 258.76 595.82 259.61 593.01 L 270.55 557.01 C 271.97 552.34 269.13 547.37 265.04 547.37 L 189.36 547.37 C 185.31 547.37 182.47 552.25 183.82 556.91 L 194.27 592.91 C 195.10 595.77 197.32 597.68 199.81 597.68 Z" fill="url(#SVGID_36_)" fill-rule="nonzero" group-id="1,5" node-id="606" stroke="none" target-height="50.309998" target-width="89.5" target-x="182.47" target-y="547.37"></path><path d="M 197.65 614.24 C 197.65 614.24 196.81 612.39 196.17 612.19 C 195.53 611.99 186.24 611.62 182.85 610.74 C 179.46 609.86 169.70 608.47 165.51 612.43 C 161.87 615.88 160.66 623.94 166.21 628.58 C 168.29 630.39 170.34 630.92 178.05 630.56 C 185.76 630.20 196.94 630.28 199.39 626.71 C 199.31 620.80 197.65 614.24 197.65 614.24 Z" fill="#ffffff" fill-rule="nonzero" group-id="1,5,9" node-id="610" stroke="none" target-height="22.450012" target-width="38.729996" target-x="160.66" target-y="608.47"></path><path d="M 206.26 612.19 C 206.26 612.19 197.30 614.20 194.09 613.91 C 190.89 613.61 193.57 626.53 193.57 626.53 C 193.57 626.53 202.13 627.12 209.70 624.93 C 212.26 615.03 206.26 612.19 206.26 612.19 Z" fill="url(#SVGID_37_)" fill-rule="nonzero" group-id="1,5,9" node-id="612" stroke="none" target-height="14.929993" target-width="21.369995" target-x="190.89" target-y="612.19"></path><path d="M 203.05 611.72 L 207.71 626.21 C 207.71 626.21 307.84 613.02 293.53 580.53 C 281.57 553.36 203.05 611.72 203.05 611.72 Z" fill="url(#SVGID_38_)" fill-rule="nonzero" group-id="1,5,9" node-id="614" stroke="none" target-height="72.85004" target-width="104.78999" target-x="203.05" target-y="553.36"></path><path d="M 196.48 612.84 C 196.48 612.84 200.15 614.28 200.61 619.39 C 201.08 624.51 199.56 627.94 191.76 628.89 C 183.96 629.84 181.98 629.48 177.09 629.60 C 172.20 629.72 165.10 630.19 164.05 620.89 C 163.00 611.59 172.51 609.22 182.37 611.59 C 185.48 612.19 196.48 612.84 196.48 612.84 Z" fill="url(#SVGID_39_)" fill-rule="nonzero" group-id="1,5,9" node-id="616" stroke="none" target-height="20.970032" target-width="38.08" target-x="163" target-y="609.22"></path><path d="M 260.13 614.24 C 260.13 614.24 260.97 612.39 261.61 612.19 C 262.26 611.99 271.54 611.62 274.93 610.74 C 278.32 609.86 287.42 608.40 292.02 612.32 C 296.28 615.96 296.56 624.01 291.71 628.45 C 289.63 630.26 287.44 630.92 279.73 630.56 C 272.02 630.20 260.84 630.28 258.39 626.71 C 258.47 620.80 260.13 614.24 260.13 614.24 Z" fill="#ffffff" fill-rule="nonzero" group-id="1,5,10" node-id="621" stroke="none" target-height="22.519958" target-width="38.169983" target-x="258.39" target-y="608.4"></path><path d="M 251.51 612.19 C 251.51 612.19 260.47 614.20 263.68 613.91 C 266.88 613.61 264.20 626.53 264.20 626.53 C 264.20 626.53 255.64 627.12 248.07 624.93 C 245.52 615.03 251.51 612.19 251.51 612.19 Z" fill="url(#SVGID_40_)" fill-rule="nonzero" group-id="1,5,10" node-id="623" stroke="none" target-height="14.929993" target-width="21.36" target-x="245.52" target-y="612.19"></path><path d="M 254.72 611.72 L 250.06 626.21 C 250.06 626.21 149.93 613.02 164.24 580.53 C 176.21 553.36 254.72 611.72 254.72 611.72 Z" fill="url(#SVGID_41_)" fill-rule="nonzero" group-id="1,5,10" node-id="625" stroke="none" target-height="72.85004" target-width="104.79001" target-x="149.93" target-y="553.36"></path><path d="M 261.29 612.84 C 261.29 612.84 257.62 614.28 257.16 619.39 C 256.69 624.51 258.21 627.94 266.01 628.89 C 273.81 629.84 275.79 629.48 280.68 629.60 C 285.57 629.72 292.67 630.19 293.72 620.89 C 294.77 611.59 285.26 609.22 275.40 611.59 C 272.30 612.19 261.29 612.84 261.29 612.84 Z" fill="url(#SVGID_42_)" fill-rule="nonzero" group-id="1,5,10" node-id="627" stroke="none" target-height="20.970032" target-width="38.079987" target-x="256.69" target-y="609.22"></path><path d="M 518.23 588.08 L 561.09 557.29 L 653.00 557.29 L 570.04 621.78 L 523.32 612.08 C 511.90 609.71 508.75 594.89 518.23 588.08 Z" fill="url(#SVGID_43_)" fill-rule="nonzero" group-id="1" node-id="631" stroke="none" target-height="64.49005" target-width="144.25" target-x="508.75" target-y="557.29"></path><path d="M 576.30 602.71 C 576.30 621.37 561.17 636.50 542.51 636.50 C 523.85 636.50 508.72 621.37 508.72 602.71 C 508.72 584.05 523.85 568.92 542.51 568.92 C 561.17 568.92 576.30 584.05 576.30 602.71 Z" fill="url(#SVGID_44_)" fill-rule="nonzero" group-id="1" node-id="633" stroke="none" target-height="67.58002" target-width="67.57999" target-x="508.72" target-y="568.92"></path><path d="M 570.26 603.30 C 570.26 621.96 555.13 637.09 536.47 637.09 C 517.81 637.09 502.68 621.96 502.68 603.30 C 502.68 584.64 517.81 569.51 536.47 569.51 C 555.13 569.51 570.26 584.64 570.26 603.30 Z" fill="url(#SVGID_45_)" fill-rule="nonzero" group-id="1" node-id="635" stroke="none" target-height="67.58002" target-width="67.58002" target-x="502.68" target-y="569.51"></path><path d="M 525.87 282.41 C 525.87 295.81 515.01 306.67 501.61 306.67 C 488.21 306.67 477.35 295.81 477.35 282.41 C 477.35 269.01 488.21 258.15 501.61 258.15 C 515.01 258.15 525.87 269.01 525.87 282.41 Z" fill="url(#SVGID_46_)" fill-rule="nonzero" group-id="1" node-id="637" stroke="none" target-height="48.52002" target-width="48.51999" target-x="477.35" target-y="258.15"></path><path d="M 521.53 282.83 C 521.53 296.23 510.67 307.09 497.27 307.09 C 483.87 307.09 473.01 296.23 473.01 282.83 C 473.01 269.43 483.87 258.57 497.27 258.57 C 510.67 258.57 521.53 269.43 521.53 282.83 Z" fill="url(#SVGID_47_)" fill-rule="nonzero" group-id="1" node-id="639" stroke="none" target-height="48.51999" target-width="48.52002" target-x="473.01" target-y="258.57"></path></g></svg>