<?xml version="1.0" standalone="no"?><!DOCTYPE svg PUBLIC "-//W3C//DTD SVG 1.1//EN" "http://www.w3.org/Graphics/SVG/1.1/DTD/svg11.dtd"><svg height="800" node-id="1" sillyvg="true" template-height="800" template-width="800" version="1.1" viewBox="0 0 800 800" width="800" xmlns="http://www.w3.org/2000/svg" xmlns:xlink="http://www.w3.org/1999/xlink"><defs node-id="222"><linearGradient gradientUnits="userSpaceOnUse" id="SVGID_1_" node-id="21" spreadMethod="pad" x1="402.8316" x2="402.8316" y1="159.8431" y2="715.3348"><stop offset="0.00000009590021" stop-color="#f4f2fb"></stop><stop offset="1" stop-color="#e1eef5"></stop></linearGradient><linearGradient gradientUnits="userSpaceOnUse" id="SVGID_2_" node-id="26" spreadMethod="pad" x1="117.9134" x2="117.9134" y1="540.2294" y2="403.0549"><stop offset="0.2267" stop-color="#b7ace0"></stop><stop offset="0.7893" stop-color="#e8e7fa"></stop></linearGradient><linearGradient gradientUnits="userSpaceOnUse" id="SVGID_3_" node-id="31" spreadMethod="pad" x1="117.9152" x2="117.9152" y1="418.2866" y2="569.4199"><stop offset="0" stop-color="#ecf1fb"></stop><stop offset="0.818" stop-color="#afb0e7"></stop></linearGradient><linearGradient gradientUnits="userSpaceOnUse" id="SVGID_4_" node-id="36" spreadMethod="pad" x1="619.0422" x2="619.0422" y1="448.7075" y2="360.383"><stop offset="0.2267" stop-color="#ccd4f4"></stop><stop offset="0.7893" stop-color="#ecf1fb"></stop></linearGradient><linearGradient gradientUnits="userSpaceOnUse" id="SVGID_5_" node-id="41" spreadMethod="pad" x1="619.0434" x2="619.0434" y1="370.1905" y2="467.5028"><stop offset="0" stop-color="#ecf1fb"></stop><stop offset="1" stop-color="#a6a8e2"></stop></linearGradient><linearGradient gradientUnits="userSpaceOnUse" id="SVGID_6_" node-id="45" spreadMethod="pad" x1="464.9603" x2="430.206" y1="86.1009" y2="146.297"><stop offset="0" stop-color="#ffdb80"></stop><stop offset="1" stop-color="#ffbb24"></stop></linearGradient><linearGradient gradientUnits="userSpaceOnUse" id="SVGID_7_" node-id="49" spreadMethod="pad" x1="422.6231" x2="422.6231" y1="116.5671" y2="174.021"><stop offset="0" stop-color="#f9fafe"></stop><stop offset="1" stop-color="#e5edf7"></stop></linearGradient><linearGradient gradientUnits="userSpaceOnUse" id="SVGID_8_" node-id="54" spreadMethod="pad" x1="689.6445" x2="689.6445" y1="537.9476" y2="510.1194"><stop offset="0.2267" stop-color="#afb0e7"></stop><stop offset="1" stop-color="#ecf1fb"></stop></linearGradient><linearGradient gradientUnits="userSpaceOnUse" id="SVGID_9_" node-id="58" spreadMethod="pad" x1="689.6936" x2="689.6936" y1="513.6331" y2="558.429"><stop offset="0.00000009590021" stop-color="#dde1f6"></stop><stop offset="0.818" stop-color="#a6a8e2"></stop></linearGradient><linearGradient gradientUnits="userSpaceOnUse" id="SVGID_10_" node-id="62" spreadMethod="pad" x1="289.384" x2="289.384" y1="477.1897" y2="411.2265"><stop offset="0" stop-color="#b0b9e1"></stop><stop offset="1" stop-color="#e7eff7"></stop></linearGradient><linearGradient gradientUnits="userSpaceOnUse" id="SVGID_11_" node-id="66" spreadMethod="pad" x1="454.1447" x2="454.1447" y1="502.8093" y2="420.6498"><stop offset="0" stop-color="#b0b9e1"></stop><stop offset="1" stop-color="#e7eff7"></stop></linearGradient><linearGradient gradientUnits="userSpaceOnUse" id="SVGID_12_" node-id="70" spreadMethod="pad" x1="589.0159" x2="589.0159" y1="472.1323" y2="397.6805"><stop offset="0" stop-color="#b0b9e1"></stop><stop offset="1" stop-color="#e7eff7"></stop></linearGradient><linearGradient gradientUnits="userSpaceOnUse" id="SVGID_13_" node-id="74" spreadMethod="pad" x1="314.2675" x2="314.2675" y1="607.3492" y2="497.3615"><stop offset="0" stop-color="#b0b9e1"></stop><stop offset="1" stop-color="#e7eff7"></stop></linearGradient><linearGradient gradientUnits="userSpaceOnUse" id="SVGID_14_" node-id="79" spreadMethod="pad" x1="515.6039" x2="613.0919" y1="312.8669" y2="481.721"><stop offset="0" stop-color="#c8cbf2"></stop><stop offset="1" stop-color="#afb0e7"></stop></linearGradient><linearGradient gradientUnits="userSpaceOnUse" id="SVGID_15_" node-id="83" spreadMethod="pad" x1="513.8388" x2="606.6399" y1="321.6192" y2="482.3554"><stop offset="0.1157" stop-color="#dee4ff"></stop><stop offset="0.8472" stop-color="#bacbee"></stop></linearGradient><linearGradient gradientUnits="userSpaceOnUse" id="SVGID_16_" node-id="87" spreadMethod="pad" x1="217.0311" x2="316.5833" y1="307.3632" y2="479.7927"><stop offset="0" stop-color="#c8cbf2"></stop><stop offset="1" stop-color="#afb0e7"></stop></linearGradient><linearGradient gradientUnits="userSpaceOnUse" id="SVGID_17_" node-id="91" spreadMethod="pad" x1="212.7352" x2="309.6987" y1="311.9824" y2="479.9279"><stop offset="0.1157" stop-color="#dee4ff"></stop><stop offset="0.8472" stop-color="#bacbee"></stop></linearGradient><linearGradient gradientUnits="userSpaceOnUse" id="SVGID_18_" node-id="95" spreadMethod="pad" x1="368.4587" x2="452.4483" y1="304.7309" y2="450.205"><stop offset="0" stop-color="#c8cbf2"></stop><stop offset="1" stop-color="#afb0e7"></stop></linearGradient><linearGradient gradientUnits="userSpaceOnUse" id="SVGID_19_" node-id="99" spreadMethod="pad" x1="366.6235" x2="445.1746" y1="312.428" y2="448.4825"><stop offset="0.1157" stop-color="#dee4ff"></stop><stop offset="0.8472" stop-color="#bacbee"></stop></linearGradient><linearGradient gradientUnits="userSpaceOnUse" id="SVGID_20_" node-id="104" spreadMethod="pad" x1="400.4175" x2="417.9941" y1="454.7478" y2="485.1914"><stop offset="0" stop-color="#c8cbf2"></stop><stop offset="1" stop-color="#afb0e7"></stop></linearGradient><linearGradient gradientUnits="userSpaceOnUse" id="SVGID_21_" node-id="109" spreadMethod="pad" x1="397.8408" x2="415.4174" y1="454.7478" y2="485.1914"><stop offset="0.1157" stop-color="#dee4ff"></stop><stop offset="0.8472" stop-color="#bacbee"></stop></linearGradient><linearGradient gradientUnits="userSpaceOnUse" id="SVGID_22_" node-id="113" spreadMethod="pad" x1="395.6264" x2="415.8156" y1="441.8876" y2="476.8564"><stop offset="0" stop-color="#c8cbf2"></stop><stop offset="1" stop-color="#afb0e7"></stop></linearGradient><linearGradient gradientUnits="userSpaceOnUse" id="SVGID_23_" node-id="117" spreadMethod="pad" x1="395.0219" x2="412.776" y1="445.7564" y2="476.5074"><stop offset="0.1157" stop-color="#dee4ff"></stop><stop offset="0.8472" stop-color="#bacbee"></stop></linearGradient><linearGradient gradientUnits="userSpaceOnUse" id="SVGID_24_" node-id="121" spreadMethod="pad" x1="396.1707" x2="416.697" y1="472.2608" y2="507.8134"><stop offset="0" stop-color="#c8cbf2"></stop><stop offset="1" stop-color="#afb0e7"></stop></linearGradient><linearGradient gradientUnits="userSpaceOnUse" id="SVGID_25_" node-id="125" spreadMethod="pad" x1="395.0995" x2="413.0182" y1="476.1589" y2="507.195"><stop offset="0.1157" stop-color="#dee4ff"></stop><stop offset="0.8472" stop-color="#bacbee"></stop></linearGradient><linearGradient gradientUnits="userSpaceOnUse" id="SVGID_26_" node-id="129" spreadMethod="pad" x1="370.7521" x2="439.3656" y1="345.0424" y2="413.6559"><stop offset="0" stop-color="#c8cbf2"></stop><stop offset="1" stop-color="#afb0e7"></stop></linearGradient><linearGradient gradientUnits="userSpaceOnUse" id="SVGID_27_" node-id="133" spreadMethod="pad" x1="352.9362" x2="415.5128" y1="350.4903" y2="413.067"><stop offset="0" stop-color="#c8cbf2"></stop><stop offset="1" stop-color="#afb0e7"></stop></linearGradient><linearGradient gradientUnits="userSpaceOnUse" id="SVGID_28_" node-id="137" spreadMethod="pad" x1="389.798" x2="456.7918" y1="347.8463" y2="414.8401"><stop offset="0" stop-color="#c8cbf2"></stop><stop offset="1" stop-color="#afb0e7"></stop></linearGradient><linearGradient gradientUnits="userSpaceOnUse" id="SVGID_29_" node-id="145" spreadMethod="pad" x1="234.692" x2="234.692" y1="561.7082" y2="486.0882"><stop offset="0" stop-color="#c3d5fd"></stop><stop offset="1" stop-color="#1a90fc"></stop></linearGradient><linearGradient gradientUnits="userSpaceOnUse" id="SVGID_30_" node-id="149" spreadMethod="pad" x1="235.7407" x2="235.7407" y1="473.1912" y2="497.1471"><stop offset="0" stop-color="#f4ae98"></stop><stop offset="1" stop-color="#fad1bb"></stop></linearGradient><linearGradient gradientTransform="matrix(0.9901 -0.1406 0.1406 0.9901 1624.8179 -387.3926)" gradientUnits="userSpaceOnUse" id="SVGID_31_" node-id="153" spreadMethod="pad" x1="-1535.4366" x2="-1523.7277" y1="750.954" y2="668.5104"><stop offset="0" stop-color="#c3d5fd"></stop><stop offset="1" stop-color="#1a90fc"></stop></linearGradient><linearGradient gradientTransform="matrix(-0.9901 -0.1406 -0.1406 0.9901 -5247.2876 -387.3926)" gradientUnits="userSpaceOnUse" id="SVGID_32_" node-id="157" spreadMethod="pad" x1="-5585.118" x2="-5573.409" y1="175.8039" y2="93.3603"><stop offset="0" stop-color="#c3d5fd"></stop><stop offset="1" stop-color="#1a90fc"></stop></linearGradient><linearGradient gradientUnits="userSpaceOnUse" id="SVGID_33_" node-id="161" spreadMethod="pad" x1="234.692" x2="234.692" y1="534.3987" y2="582.4541"><stop offset="0" stop-color="#275c89"></stop><stop offset="1" stop-color="#013f7c"></stop></linearGradient><linearGradient gradientUnits="userSpaceOnUse" id="SVGID_34_" node-id="167" spreadMethod="pad" x1="3992.1055" x2="3975.093" y1="603.1935" y2="603.1935"><stop offset="0" stop-color="#f4b9a4"></stop><stop offset="0.652" stop-color="#fad1bb"></stop></linearGradient><linearGradient gradientUnits="userSpaceOnUse" id="SVGID_35_" node-id="171" spreadMethod="pad" x1="211.6255" x2="299.3883" y1="584.4432" y2="584.4432"><stop offset="0" stop-color="#18264b"></stop><stop offset="0.652" stop-color="#2d3c65"></stop></linearGradient><linearGradient gradientUnits="userSpaceOnUse" id="SVGID_36_" node-id="175" spreadMethod="pad" x1="191.8373" x2="191.8373" y1="594.9288" y2="612.9874"><stop offset="0" stop-color="#ffdb80"></stop><stop offset="1" stop-color="#ffbb24"></stop></linearGradient><linearGradient gradientUnits="userSpaceOnUse" id="SVGID_37_" node-id="181" spreadMethod="pad" x1="254.0278" x2="271.04" y1="603.1935" y2="603.1935"><stop offset="0" stop-color="#f4b9a4"></stop><stop offset="0.652" stop-color="#fad1bb"></stop></linearGradient><linearGradient gradientUnits="userSpaceOnUse" id="SVGID_38_" node-id="185" spreadMethod="pad" x1="173.2202" x2="260.983" y1="584.4432" y2="584.4432"><stop offset="0" stop-color="#445677"></stop><stop offset="1" stop-color="#293861"></stop></linearGradient><linearGradient gradientUnits="userSpaceOnUse" id="SVGID_39_" node-id="189" spreadMethod="pad" x1="280.7712" x2="280.7712" y1="594.9288" y2="612.9874"><stop offset="0" stop-color="#ffdb80"></stop><stop offset="1" stop-color="#ffbb24"></stop></linearGradient><linearGradient gradientUnits="userSpaceOnUse" id="SVGID_40_" node-id="193" spreadMethod="pad" x1="251.4203" x2="220.113" y1="467.6961" y2="467.6961"><stop offset="0" stop-color="#f4b9a4"></stop><stop offset="0.652" stop-color="#fad1bb"></stop></linearGradient><linearGradient gradientUnits="userSpaceOnUse" id="SVGID_41_" node-id="197" spreadMethod="pad" x1="215.8045" x2="252.1522" y1="455.5945" y2="455.5945"><stop offset="0" stop-color="#4f5c7c"></stop><stop offset="1" stop-color="#274168"></stop></linearGradient><linearGradient gradientUnits="userSpaceOnUse" id="SVGID_42_" node-id="201" spreadMethod="pad" x1="509.9484" x2="509.9484" y1="612.0609" y2="547.57"><stop offset="0" stop-color="#b0b9e1"></stop><stop offset="1" stop-color="#e7eff7"></stop></linearGradient><linearGradient gradientUnits="userSpaceOnUse" id="SVGID_43_" node-id="205" spreadMethod="pad" x1="461.8352" x2="495.6322" y1="563.7242" y2="622.2625"><stop offset="0" stop-color="#c8cbf2"></stop><stop offset="1" stop-color="#afb0e7"></stop></linearGradient><linearGradient gradientUnits="userSpaceOnUse" id="SVGID_44_" node-id="209" spreadMethod="pad" x1="455.7984" x2="489.5954" y1="564.3132" y2="622.8514"><stop offset="0.1157" stop-color="#dee4ff"></stop><stop offset="0.8472" stop-color="#bacbee"></stop></linearGradient><linearGradient gradientUnits="userSpaceOnUse" id="SVGID_45_" node-id="213" spreadMethod="pad" x1="479.0009" x2="503.2672" y1="231.3495" y2="273.3799"><stop offset="0" stop-color="#c8cbf2"></stop><stop offset="1" stop-color="#afb0e7"></stop></linearGradient><linearGradient gradientUnits="userSpaceOnUse" id="SVGID_46_" node-id="217" spreadMethod="pad" x1="474.6665" x2="498.9328" y1="231.7724" y2="273.8028"><stop offset="0.1157" stop-color="#dee4ff"></stop><stop offset="0.8472" stop-color="#bacbee"></stop></linearGradient></defs><g node-id="642"><g node-id="643"><path d="M 486.09 201.20 C 447.72 231.49 365.35 235.01 304.92 198.98 C 244.49 162.95 132.92 167.60 102.70 233.85 C 72.48 300.10 139.89 365.18 115.48 412.83 C 91.07 460.48 9.72 527.87 65.50 609.23 C 121.28 690.59 192.10 669.85 234.72 661.68 C 318.89 645.55 424.51 777.35 543.34 677.81 C 611.81 620.46 713.78 719.90 753.51 596.45 C 786.29 494.59 667.84 456.95 703.54 388.42 C 741.50 315.54 734.21 229.18 693.08 187.36 C 654.78 148.40 552.33 148.90 486.09 201.20 Z" fill="url(#SVGID_1_)" fill-rule="nonzero" group-id="1,2" node-id="506" stroke="none" target-height="628.94995" target-width="776.57" target-x="9.72" target-y="148.4"></path><g node-id="646"><path d="M 118.70 403.30 C 118.70 403.30 118.48 402.73 118.18 403.34 C 115.48 408.83 91.03 468.30 89.09 514.20 C 89.09 514.20 85.01 540.57 119.20 540.22 C 147.74 539.93 146.98 515.62 146.88 507.43 C 146.49 474.21 118.70 403.30 118.70 403.30 Z" fill="url(#SVGID_2_)" fill-rule="nonzero" group-id="1,2,5" node-id="510" stroke="none" target-height="137.84" target-width="62.730003" target-x="85.01" target-y="402.73"></path><g node-id="653"><path d="M 117.92 569.42 C 117.37 569.42 116.92 568.97 116.92 568.42 L 116.92 419.29 C 116.92 418.74 117.37 418.29 117.92 418.29 C 118.47 418.29 118.92 418.74 118.92 419.29 L 118.92 568.42 C 118.92 568.97 118.47 569.42 117.92 569.42 Z" fill="url(#SVGID_3_)" fill-rule="nonzero" group-id="1,2,5,12" node-id="514" stroke="none" target-height="151.12997" target-width="2" target-x="116.92" target-y="418.29"></path></g></g><g node-id="647"><path d="M 619.55 360.54 C 619.55 360.54 619.41 360.17 619.22 360.57 C 617.48 364.10 601.74 402.40 600.49 431.95 C 600.49 431.95 597.86 448.93 619.88 448.71 C 638.26 448.53 637.77 432.87 637.70 427.60 C 637.44 406.20 619.55 360.54 619.55 360.54 Z" fill="url(#SVGID_4_)" fill-rule="nonzero" group-id="1,2,6" node-id="520" stroke="none" target-height="88.75998" target-width="40.400024" target-x="597.86" target-y="360.17"></path><g node-id="654"><path d="M 619.04 467.50 C 618.68 467.50 618.40 467.21 618.40 466.86 L 618.40 370.84 C 618.40 370.48 618.69 370.20 619.04 370.20 C 619.39 370.20 619.68 370.49 619.68 370.84 L 619.68 466.86 C 619.69 467.21 619.40 467.50 619.04 467.50 Z" fill="url(#SVGID_5_)" fill-rule="nonzero" group-id="1,2,6,13" node-id="524" stroke="none" target-height="97.29999" target-width="1.289978" target-x="618.4" target-y="370.2"></path></g></g><path d="M 482.33 116.20 C 482.33 135.39 466.77 150.95 447.58 150.95 C 428.39 150.95 412.83 135.39 412.83 116.20 C 412.83 97.01 428.39 81.45 447.58 81.45 C 466.77 81.45 482.33 97.01 482.33 116.20 Z" fill="url(#SVGID_6_)" fill-rule="nonzero" group-id="1,2" node-id="528" stroke="none" target-height="69.5" target-width="69.5" target-x="412.83" target-y="81.45"></path><path d="M 467.36 135.15 L 432.79 135.15 C 430.56 124.54 421.14 116.57 409.86 116.57 C 398.58 116.57 389.17 124.54 386.93 135.15 L 377.88 135.15 C 367.15 135.15 358.44 143.85 358.44 154.59 L 358.44 154.59 C 358.44 165.32 367.14 174.03 377.88 174.03 L 467.35 174.03 C 478.08 174.03 486.79 165.33 486.79 154.59 L 486.79 154.59 C 486.80 143.85 478.09 135.15 467.36 135.15 Z" fill="url(#SVGID_7_)" fill-rule="nonzero" group-id="1,2" node-id="530" stroke="none" target-height="57.46" target-width="128.35999" target-x="358.44" target-y="116.57"></path><path d="M 703.55 524.03 C 703.55 531.71 697.32 537.94 689.64 537.94 C 681.96 537.94 675.73 531.71 675.73 524.03 C 675.73 516.35 681.96 510.12 689.64 510.12 C 697.32 510.12 703.55 516.35 703.55 524.03 Z" fill="url(#SVGID_8_)" fill-rule="nonzero" group-id="1,2,7" node-id="534" stroke="none" target-height="27.820007" target-width="27.820007" target-x="675.73" target-y="510.12"></path><path d="M 689.69 558.43 C 689.45 558.43 689.26 558.24 689.26 558.00 L 689.26 514.06 C 689.26 513.82 689.45 513.63 689.69 513.63 C 689.93 513.63 690.12 513.82 690.12 514.06 L 690.12 558.00 C 690.12 558.24 689.93 558.43 689.69 558.43 Z" fill="url(#SVGID_9_)" fill-rule="nonzero" group-id="1,2,7" node-id="536" stroke="none" target-height="44.799988" target-width="0.85998535" target-x="689.26" target-y="513.63"></path></g><path d="M 202.07 451.28 L 270.10 411.23 L 376.70 411.23 L 315.15 477.19 L 237.41 476.01 Z" fill="url(#SVGID_10_)" fill-rule="nonzero" group-id="1" node-id="540" stroke="none" target-height="65.95999" target-width="174.63" target-x="202.07" target-y="411.23"></path><path d="M 386.71 479.55 L 431.76 420.65 L 521.58 420.65 L 423.81 502.81 L 394.37 495.15 Z" fill="url(#SVGID_11_)" fill-rule="nonzero" group-id="1" node-id="542" stroke="none" target-height="82.16" target-width="134.87003" target-x="386.71" target-y="420.65"></path><path d="M 501.26 458.64 L 566.05 397.68 L 676.77 397.68 L 627.78 464.29 C 623.66 469.89 616.84 472.84 609.93 471.99 L 501.26 458.64 Z" fill="url(#SVGID_12_)" fill-rule="nonzero" group-id="1" node-id="544" stroke="none" target-height="75.16" target-width="175.51001" target-x="501.26" target-y="397.68"></path><path d="M 212.23 592.77 L 303.67 497.36 L 416.30 497.36 L 297.04 607.35 L 247.57 604.70 Z" fill="url(#SVGID_13_)" fill-rule="nonzero" group-id="1" node-id="546" stroke="none" target-height="109.98999" target-width="204.06999" target-x="212.23" target-y="497.36"></path><path d="M 564.35 296.53 L 564.35 296.53 C 522.56 296.53 488.68 330.13 488.68 371.58 L 488.68 423.01 C 488.68 464.46 522.56 498.06 564.35 498.06 L 564.35 498.06 C 606.14 498.06 640.02 464.46 640.02 423.01 L 640.02 371.58 C 640.01 330.13 606.14 296.53 564.35 296.53 Z M 588.17 434.36 C 588.17 447.41 577.50 457.99 564.35 457.99 L 564.35 457.99 C 551.19 457.99 540.53 447.41 540.53 434.36 L 540.53 360.23 C 540.53 347.18 551.20 336.60 564.35 336.60 L 564.35 336.60 C 577.51 336.60 588.17 347.18 588.17 360.23 L 588.17 434.36 Z" fill="url(#SVGID_14_)" fill-rule="nonzero" group-id="1,3" node-id="550" stroke="none" target-height="201.53" target-width="151.34003" target-x="488.68" target-y="296.53"></path><path d="M 560.24 305.91 L 560.24 305.91 C 520.72 305.91 488.68 337.95 488.68 377.47 L 488.68 426.50 C 488.68 466.02 520.72 498.06 560.24 498.06 L 560.24 498.06 C 599.76 498.06 631.80 466.02 631.80 426.50 L 631.80 377.47 C 631.80 337.95 599.76 305.91 560.24 305.91 Z M 582.77 437.32 C 582.77 449.76 572.68 459.85 560.24 459.85 L 560.24 459.85 C 547.80 459.85 537.71 449.76 537.71 437.32 L 537.71 366.65 C 537.71 354.21 547.80 344.12 560.24 344.12 L 560.24 344.12 C 572.68 344.12 582.77 354.21 582.77 366.65 L 582.77 437.32 Z" fill="url(#SVGID_15_)" fill-rule="nonzero" group-id="1,3" node-id="552" stroke="none" target-height="192.15" target-width="143.12" target-x="488.68" target-y="305.91"></path><path d="M 333.72 412.60 C 328.17 354.45 267.73 358.59 243.58 362.62 L 245.84 347.34 L 317.33 353.22 L 326.31 347.34 L 326.31 307.20 L 217.31 307.20 L 208.22 314.67 L 193.41 407.08 L 237.01 407.08 C 259.74 387.09 275.78 395.71 282.39 407.08 C 288.73 418.00 289.66 450.34 262.68 450.95 C 239.34 451.48 239.55 431.03 239.55 431.03 L 198.00 431.61 L 189.94 439.13 C 189.94 439.13 196.12 498.54 259.67 498.54 C 323.22 498.54 336.97 448.45 333.72 412.60 Z" fill="url(#SVGID_16_)" fill-rule="nonzero" group-id="1,3" node-id="554" stroke="none" target-height="191.34" target-width="147.03" target-x="189.94" target-y="307.2"></path><path d="M 324.26 415.94 C 319.07 360.05 262.61 364.02 240.05 367.90 L 242.16 353.21 L 317.33 353.21 L 317.33 314.63 L 208.14 314.63 L 193.19 410.63 L 233.92 410.63 C 255.15 391.42 270.14 399.70 276.31 410.63 C 282.23 421.12 283.10 457.01 257.90 457.60 C 236.10 458.11 233.49 438.46 233.49 438.46 L 189.95 439.12 C 189.95 439.12 195.73 498.53 255.09 498.53 C 314.45 498.53 327.29 450.39 324.26 415.94 Z" fill="url(#SVGID_17_)" fill-rule="nonzero" group-id="1,3" node-id="556" stroke="none" target-height="183.9" target-width="137.34001" target-x="189.95" target-y="314.63"></path><path d="M 387.26 461.26 C 387.26 461.26 333.17 424.54 330.77 377.43 C 328.48 332.40 356.24 296.16 407.04 296.16 C 462.33 296.16 485.16 344.11 485.16 370.15 C 485.16 396.19 474.53 433.40 429.43 463.50 C 405.90 463.50 387.26 461.26 387.26 461.26 Z" fill="url(#SVGID_18_)" fill-rule="nonzero" group-id="1,3" node-id="558" stroke="none" target-height="167.34" target-width="156.68" target-x="328.48" target-y="296.16"></path><path d="M 384.76 461.29 C 384.76 461.29 333.06 426.35 330.77 381.52 C 328.58 338.67 355.12 304.18 403.67 304.18 C 456.52 304.18 477.14 349.72 477.14 374.50 C 477.14 399.28 465.11 433.22 422.00 461.86 C 399.51 461.87 384.76 461.29 384.76 461.29 Z" fill="url(#SVGID_19_)" fill-rule="nonzero" group-id="1,3" node-id="560" stroke="none" target-height="157.69" target-width="148.56003" target-x="328.58" target-y="304.18"></path><path d="M 414.59 486.78 L 397.95 486.78 C 397.10 486.78 396.31 486.34 395.87 485.61 L 384.48 466.81 C 383.78 465.66 384.15 464.17 385.30 463.47 C 386.45 462.78 387.94 463.14 388.64 464.29 L 399.32 481.91 L 413.16 481.91 L 423.76 462.86 C 424.41 461.69 425.89 461.26 427.07 461.92 C 428.24 462.57 428.67 464.05 428.01 465.23 L 416.72 485.53 C 416.28 486.30 415.47 486.78 414.59 486.78 Z" fill="url(#SVGID_20_)" fill-rule="nonzero" group-id="1,3,8" node-id="564" stroke="none" target-height="25.519989" target-width="44.890015" target-x="383.78" target-y="461.26"></path><path d="M 412.01 486.78 L 395.37 486.78 C 394.52 486.78 393.73 486.34 393.29 485.61 L 381.90 466.81 C 381.20 465.66 381.57 464.17 382.72 463.47 C 383.87 462.78 385.36 463.14 386.06 464.29 L 396.74 481.91 L 410.58 481.91 L 421.18 462.86 C 421.83 461.69 423.31 461.26 424.49 461.92 C 425.66 462.57 426.09 464.05 425.43 465.23 L 414.14 485.53 C 413.71 486.30 412.89 486.78 412.01 486.78 Z" fill="url(#SVGID_21_)" fill-rule="nonzero" group-id="1,3,9" node-id="569" stroke="none" target-height="25.519989" target-width="44.889984" target-x="381.2" target-y="461.26"></path><path d="M 429.22 468.35 L 381.56 468.35 C 378.80 468.35 376.56 466.11 376.56 463.35 L 376.56 452.90 L 434.21 452.90 L 434.21 463.35 C 434.21 466.11 431.98 468.35 429.22 468.35 Z" fill="url(#SVGID_22_)" fill-rule="nonzero" group-id="1,3" node-id="572" stroke="none" target-height="15.450012" target-width="57.649994" target-x="376.56" target-y="452.9"></path><path d="M 425.57 468.35 L 381.56 468.35 C 378.80 468.35 376.56 466.11 376.56 463.35 L 376.56 456.42 L 430.57 456.42 L 430.57 463.35 C 430.57 466.11 428.33 468.35 425.57 468.35 Z" fill="url(#SVGID_23_)" fill-rule="nonzero" group-id="1,3" node-id="574" stroke="none" target-height="11.929993" target-width="54.01001" target-x="376.56" target-y="456.42"></path><path d="M 418.79 505.46 L 393.09 505.46 C 389.00 505.46 385.69 502.15 385.69 498.06 L 385.69 478.31 L 426.19 478.31 L 426.19 498.06 C 426.19 502.15 422.88 505.46 418.79 505.46 Z" fill="url(#SVGID_24_)" fill-rule="nonzero" group-id="1,3" node-id="576" stroke="none" target-height="27.149994" target-width="40.5" target-x="385.69" target-y="478.31"></path><path d="M 414.04 505.46 L 393.09 505.46 C 389.00 505.46 385.69 502.15 385.69 498.06 L 385.69 481.59 L 421.44 481.59 L 421.44 498.06 C 421.44 502.15 418.13 505.46 414.04 505.46 Z" fill="url(#SVGID_25_)" fill-rule="nonzero" group-id="1,3" node-id="578" stroke="none" target-height="23.869995" target-width="35.75" target-x="385.69" target-y="481.59"></path><path d="M 404.40 311.40 C 404.40 311.40 387.17 390.91 405.73 447.30 C 453.57 384.87 404.40 311.40 404.40 311.40 Z" fill="url(#SVGID_26_)" fill-rule="nonzero" group-id="1,3" node-id="580" stroke="none" target-height="135.9" target-width="66.399994" target-x="387.17" target-y="311.4"></path><path d="M 386.43 316.99 C 386.43 316.99 371.19 343.93 370.09 379.71 C 369.34 404.14 382.02 446.56 382.02 446.56 C 382.02 446.56 361.26 410.49 361.26 376.33 C 361.26 342.17 386.43 316.99 386.43 316.99 Z" fill="url(#SVGID_27_)" fill-rule="nonzero" group-id="1,3" node-id="582" stroke="none" target-height="129.57" target-width="25.169983" target-x="361.26" target-y="316.99"></path><path d="M 420.65 316.99 C 420.65 316.99 454.75 339.11 454.75 377.98 C 454.75 416.85 425.07 446.56 425.07 446.56 C 425.07 446.56 448.57 404.38 448.57 375.66 C 448.57 361.42 434.59 326.90 420.65 316.99 Z" fill="url(#SVGID_28_)" fill-rule="nonzero" group-id="1,3" node-id="584" stroke="none" target-height="129.57" target-width="34.100006" target-x="420.65" target-y="316.99"></path><path d="M 386.43 316.99 C 386.43 316.99 324.30 364.11 382.01 446.56 C 374.95 430.96 345.80 372.94 386.43 316.99 Z" fill="#ffffff" fill-rule="nonzero" group-id="1,3" node-id="586" stroke="none" target-height="129.57" target-width="62.130005" target-x="324.3" target-y="316.99"></path><path d="M 420.65 316.99 C 420.65 316.99 482.78 364.11 425.07 446.56 C 432.14 430.96 461.29 372.94 420.65 316.99 Z" fill="#ffffff" fill-rule="nonzero" group-id="1,3" node-id="588" stroke="none" target-height="129.57" target-width="62.130005" target-x="420.65" target-y="316.99"></path><path d="M 404.40 311.40 C 404.40 311.40 368.92 391.06 405.73 447.30 C 437.97 389.80 404.40 311.40 404.40 311.40 Z" fill="#ffffff" fill-rule="nonzero" group-id="1,3" node-id="590" stroke="none" target-height="135.9" target-width="69.04999" target-x="368.92" target-y="311.4"></path><path d="M 226.89 486.45 C 226.89 486.45 208.54 483.91 202.58 492.34 C 196.62 500.77 194.44 522.35 194.44 522.35 L 208.25 521.62 L 207.09 546.76 L 232.57 561.70 L 268.87 542.18 L 263.35 519.40 L 274.95 516.37 C 274.95 516.37 271.49 483.31 255.36 488.19 C 247.07 489.08 244.46 488.93 244.46 488.93 C 244.46 488.93 242.28 495.88 234.79 495.29 C 227.30 494.71 226.89 486.45 226.89 486.45 Z" fill="url(#SVGID_29_)" fill-rule="nonzero" group-id="1,4" node-id="595" stroke="none" target-height="78.390015" target-width="80.51001" target-x="194.44" target-y="483.31"></path><path d="M 228.72 476.05 L 224.91 493.06 C 224.73 493.86 225.15 494.67 225.91 494.98 C 227.88 495.78 231.82 497.15 235.88 497.15 C 240.09 497.15 244.06 494.85 245.88 493.62 C 246.51 493.20 246.77 492.41 246.53 491.69 L 240.70 474.34 C 240.43 473.55 239.63 473.07 238.81 473.22 L 230.07 474.77 C 229.40 474.88 228.87 475.39 228.72 476.05 Z" fill="url(#SVGID_30_)" fill-rule="nonzero" group-id="1,4" node-id="597" stroke="none" target-height="24.079987" target-width="22.040009" target-x="224.73" target-y="473.07"></path><path d="M 205.94 489.39 C 211.28 487.62 218.52 488.80 218.82 500.78 C 219.11 512.76 207.37 531.85 211.58 538.49 C 215.84 545.22 224.95 554.78 230.75 560.22 C 229.40 566.62 225.76 572.00 225.76 572.00 C 225.76 572.00 204.40 562.14 195.10 552.27 C 185.80 542.40 190.49 519.77 194.80 503.66 C 198.04 491.53 205.94 489.39 205.94 489.39 Z" fill="url(#SVGID_31_)" fill-rule="nonzero" group-id="1,4" node-id="599" stroke="none" target-height="84.380005" target-width="44.949997" target-x="185.8" target-y="487.62"></path><path d="M 261.91 489.39 C 256.57 487.62 249.33 488.80 249.03 500.78 C 248.74 512.76 260.48 531.85 256.27 538.49 C 252.01 545.22 242.90 554.78 237.10 560.22 C 238.45 566.62 242.09 572.00 242.09 572.00 C 242.09 572.00 263.45 562.14 272.75 552.27 C 282.05 542.40 277.36 519.77 273.05 503.66 C 269.81 491.53 261.91 489.39 261.91 489.39 Z" fill="url(#SVGID_32_)" fill-rule="nonzero" group-id="1,4" node-id="601" stroke="none" target-height="84.380005" target-width="44.94998" target-x="237.1" target-y="487.62"></path><path d="M 208.53 582.45 L 260.38 582.45 C 262.73 582.45 264.83 580.67 265.64 577.99 L 276.09 543.60 C 277.45 539.14 274.74 534.39 270.83 534.39 L 198.54 534.39 C 194.67 534.39 191.96 539.06 193.25 543.50 L 203.23 577.89 C 204.03 580.63 206.15 582.45 208.53 582.45 Z" fill="url(#SVGID_33_)" fill-rule="nonzero" group-id="1,4" node-id="603" stroke="none" target-height="48.059998" target-width="85.490005" target-x="191.96" target-y="534.39"></path><path d="M 206.46 598.27 C 206.46 598.27 205.66 596.51 205.04 596.32 C 204.42 596.13 195.55 595.78 192.32 594.94 C 189.09 594.10 179.76 592.77 175.76 596.55 C 172.28 599.85 171.13 607.55 176.43 611.98 C 178.42 613.71 180.37 614.21 187.74 613.87 C 195.11 613.53 205.78 613.60 208.12 610.19 C 208.05 604.54 206.46 598.27 206.46 598.27 Z" fill="#ffffff" fill-rule="nonzero" group-id="1,4,10" node-id="607" stroke="none" target-height="21.440002" target-width="36.98999" target-x="171.13" target-y="592.77"></path><path d="M 214.69 596.31 C 214.69 596.31 206.13 598.23 203.07 597.95 C 200.01 597.67 202.57 610.00 202.57 610.00 C 202.57 610.00 210.74 610.57 217.97 608.47 C 220.42 599.03 214.69 596.31 214.69 596.31 Z" fill="url(#SVGID_34_)" fill-rule="nonzero" group-id="1,4,10" node-id="609" stroke="none" target-height="14.26001" target-width="20.410004" target-x="200.01" target-y="596.31"></path><path d="M 211.63 595.87 L 216.08 609.71 C 216.08 609.71 311.72 597.11 298.05 566.08 C 286.62 540.12 211.63 595.87 211.63 595.87 Z" fill="url(#SVGID_35_)" fill-rule="nonzero" group-id="1,4,10" node-id="611" stroke="none" target-height="69.59003" target-width="100.09" target-x="211.63" target-y="540.12"></path><path d="M 205.35 596.94 C 205.35 596.94 208.85 598.31 209.30 603.20 C 209.74 608.09 208.30 611.37 200.85 612.27 C 193.40 613.18 191.51 612.84 186.84 612.95 C 182.17 613.06 175.39 613.52 174.38 604.63 C 173.38 595.75 182.46 593.48 191.88 595.75 C 194.84 596.31 205.35 596.94 205.35 596.94 Z" fill="url(#SVGID_36_)" fill-rule="nonzero" group-id="1,4,10" node-id="613" stroke="none" target-height="20.04004" target-width="36.36" target-x="173.38" target-y="593.48"></path><path d="M 266.14 598.27 C 266.14 598.27 266.94 596.51 267.56 596.32 C 268.18 596.13 277.05 595.78 280.28 594.94 C 283.51 594.10 292.21 592.70 296.60 596.45 C 300.67 599.93 300.94 607.61 296.30 611.85 C 294.31 613.58 292.22 614.20 284.86 613.86 C 277.50 613.52 266.82 613.59 264.48 610.18 C 264.56 604.54 266.14 598.27 266.14 598.27 Z" fill="#ffffff" fill-rule="nonzero" group-id="1,4,11" node-id="618" stroke="none" target-height="21.5" target-width="36.45999" target-x="264.48" target-y="592.7"></path><path d="M 257.92 596.31 C 257.92 596.31 266.48 598.23 269.54 597.95 C 272.60 597.67 270.04 610.00 270.04 610.00 C 270.04 610.00 261.87 610.57 254.64 608.47 C 252.19 599.03 257.92 596.31 257.92 596.31 Z" fill="url(#SVGID_37_)" fill-rule="nonzero" group-id="1,4,11" node-id="620" stroke="none" target-height="14.26001" target-width="20.410004" target-x="252.19" target-y="596.31"></path><path d="M 260.98 595.87 L 256.53 609.71 C 256.53 609.71 160.89 597.11 174.56 566.08 C 185.99 540.12 260.98 595.87 260.98 595.87 Z" fill="url(#SVGID_38_)" fill-rule="nonzero" group-id="1,4,11" node-id="622" stroke="none" target-height="69.59003" target-width="100.09001" target-x="160.89" target-y="540.12"></path><path d="M 267.26 596.94 C 267.26 596.94 263.76 598.31 263.31 603.20 C 262.86 608.09 264.31 611.37 271.76 612.27 C 279.21 613.17 281.10 612.84 285.77 612.95 C 290.44 613.06 297.22 613.52 298.23 604.63 C 299.23 595.75 290.15 593.48 280.73 595.75 C 277.77 596.31 267.26 596.94 267.26 596.94 Z" fill="url(#SVGID_39_)" fill-rule="nonzero" group-id="1,4,11" node-id="624" stroke="none" target-height="20.04004" target-width="36.370026" target-x="262.86" target-y="593.48"></path><path d="M 250.74 469.25 C 251.31 468.44 251.67 466.37 251.20 465.76 C 250.36 465.08 249.57 465.47 248.96 466.06 C 249.10 461.10 248.65 456.99 248.54 455.94 C 248.23 452.90 245.14 447.34 235.04 447.34 C 224.94 447.34 222.99 454.63 222.99 454.63 C 222.99 454.63 222.33 459.78 222.53 466.04 C 221.93 465.46 221.14 465.09 220.31 465.76 C 219.85 466.37 220.21 468.44 220.77 469.25 C 221.34 470.06 221.70 471.98 221.80 473.04 C 221.90 474.05 221.17 476.74 223.83 476.40 C 225.42 482.75 231.84 488.04 235.82 488.04 C 240.18 488.04 245.98 482.71 247.62 476.39 C 250.33 476.76 249.60 474.05 249.69 473.04 C 249.82 471.98 250.18 470.06 250.74 469.25 Z" fill="url(#SVGID_40_)" fill-rule="nonzero" group-id="1,4" node-id="627" stroke="none" target-height="40.700012" target-width="31.819992" target-x="219.85" target-y="447.34"></path><path d="M 242.34 445.19 C 242.34 445.19 240.37 438.98 232.81 440.47 C 225.26 441.95 224.75 445.53 221.78 445.66 C 216.72 445.90 212.67 452.20 219.17 458.88 C 222.06 461.85 219.62 463.13 220.99 465.76 C 222.36 468.39 222.35 470.95 222.35 470.95 C 222.35 470.95 224.76 463.24 223.17 459.95 C 222.35 458.25 225.99 457.79 230.52 458.20 C 235.05 458.61 242.20 457.10 242.76 454.02 C 244.10 460.34 245.44 461.00 247.14 461.96 C 248.84 462.92 248.94 470.56 248.94 470.56 C 248.94 470.56 249.24 464.94 250.43 463.68 C 251.41 461.61 253.32 453.46 251.16 451.49 C 249.00 449.52 250.82 443.18 242.34 445.19 Z" fill="url(#SVGID_41_)" fill-rule="nonzero" group-id="1,4" node-id="629" stroke="none" target-height="31.970001" target-width="40.65001" target-x="212.67" target-y="438.98"></path><path d="M 452.67 596.16 L 498.32 547.57 L 567.22 547.57 L 506.27 612.06 Z" fill="url(#SVGID_42_)" fill-rule="nonzero" group-id="1" node-id="632" stroke="none" target-height="64.48999" target-width="114.54996" target-x="452.67" target-y="547.57"></path><path d="M 512.52 592.99 C 512.52 611.65 497.39 626.78 478.73 626.78 C 460.07 626.78 444.94 611.65 444.94 592.99 C 444.94 574.33 460.07 559.20 478.73 559.20 C 497.39 559.20 512.52 574.33 512.52 592.99 Z" fill="url(#SVGID_43_)" fill-rule="nonzero" group-id="1" node-id="634" stroke="none" target-height="67.58002" target-width="67.58002" target-x="444.94" target-y="559.2"></path><path d="M 506.49 593.58 C 506.49 612.24 491.36 627.37 472.70 627.37 C 454.04 627.37 438.91 612.24 438.91 593.58 C 438.91 574.92 454.04 559.79 472.70 559.79 C 491.36 559.79 506.49 574.92 506.49 593.58 Z" fill="url(#SVGID_44_)" fill-rule="nonzero" group-id="1" node-id="636" stroke="none" target-height="67.58002" target-width="67.57999" target-x="438.91" target-y="559.79"></path><path d="M 515.39 252.36 C 515.39 265.76 504.53 276.62 491.13 276.62 C 477.73 276.62 466.87 265.76 466.87 252.36 C 466.87 238.96 477.73 228.10 491.13 228.10 C 504.53 228.10 515.39 238.96 515.39 252.36 Z" fill="url(#SVGID_45_)" fill-rule="nonzero" group-id="1" node-id="638" stroke="none" target-height="48.51999" target-width="48.52002" target-x="466.87" target-y="228.1"></path><path d="M 511.06 252.79 C 511.06 266.19 500.20 277.05 486.80 277.05 C 473.40 277.05 462.54 266.19 462.54 252.79 C 462.54 239.39 473.40 228.53 486.80 228.53 C 500.20 228.53 511.06 239.39 511.06 252.79 Z" fill="url(#SVGID_46_)" fill-rule="nonzero" group-id="1" node-id="640" stroke="none" target-height="48.51999" target-width="48.51999" target-x="462.54" target-y="228.53"></path></g></svg>